<svg xmlns="http://www.w3.org/2000/svg" viewBox="0 0 280 72" fill="none" role="img" aria-label="造境跃迁 ScapeLeap">
  <g transform="translate(0,8)">
  <rect width="56" height="56" rx="13" fill="#0A0A0A"/>
  <g transform="scale(0.63636364)">
      <path fill-rule="evenodd" d="M44.00 18.00 L67.00 31.00 L44.00 44.00 L21.00 31.00 Z M44.00 31.00 L55.50 37.50 L44.00 44.00 L32.50 37.50 Z" fill="#FFFFFF"/>
      <path fill-rule="evenodd" d="M21.00 31.00 L44.00 44.00 L44.00 70.00 L21.00 57.00 Z M32.50 37.50 L44.00 44.00 L44.00 57.00 L32.50 50.50 Z" fill="#3A3A3A"/>
      <path fill-rule="evenodd" d="M67.00 31.00 L44.00 44.00 L44.00 70.00 L67.00 57.00 Z M55.50 37.50 L44.00 44.00 L44.00 57.00 L55.50 50.50 Z" fill="#6B6B6B"/>
      <path d="M44.00 31.00 L55.50 37.50 L44.00 44.00 L32.50 37.50 Z" fill="#0A0A0A"/>
      <path d="M32.50 37.50 L44.00 44.00 L44.00 57.00 L32.50 50.50 Z" fill="#1A1A1A"/>
      <path d="M55.50 37.50 L44.00 44.00 L44.00 57.00 L55.50 50.50 Z" fill="#2A2A2A"/>
  </g>
  </g>
  <text x="72" y="36"
    font-family="'PingFang SC','Noto Sans SC','Microsoft YaHei',sans-serif"
    font-size="26" font-weight="650" fill="#0A0A0A" letter-spacing="0.08em">造境跃迁</text>
  <text x="72" y="58"
    font-family="Inter,'Helvetica Neue',Arial,sans-serif"
    font-size="13" font-weight="550" fill="#6B6B6B" letter-spacing="0.04em">ScapeLeap</text>
</svg>
